:FULLY-SPECIFIED
:FORCE-ALL-JOINTS-BE-3DOF
:DEGREES
985
root 1.10772 15.1494 32.5011 5.3147 -4.92278 4.06542
lfemur 8.89132 1.9656 5.27549
ltibia -0.023484 0 0
lfoot -30.2153 -11.5653 0.00331071
ltoes -33.997 0 0
rfemur -33.1595 -15.7421 -6.094
rtibia 50.9518 -0 0
rfoot -22.9266 5.30029 0.00108864
rtoes -42.0295 0 0
lowerback -1.45969 -0.384833 0.684614
upperback -0.723384 -0.519529 -5.82964
thorax 0.0136064 -0.27634 -6.43963
lowerneck -6.71059 1.2334 5.91398
upperneck 1.043 1.05664 3.36652
head 1.4703 0.631106 0.0908435
lclavicle 2.65378e-14 4.45278e-14 0
lhumerus -58.2241 -44.9998 114.91
lradius 54.9586 -0 0
lwrist 24.9588 0 0
lhand 37.0905 24.4624 -1.08442e-05
lfingers 7.12502 -0 0
lthumb 59.9458 38.3225 0.00490951
rclavicle 2.65378e-14 4.45278e-14 0
rhumerus 3.90963 -24.3058 0.188566
rradius 27.973 -0 0
rwrist -11.0597 0 0
rhand -30.9941 -44.4837 -0.0259301
rfingers 7.12502 -0 0
rthumb -4.2778 -74.4318 -0.0232438
986
root 1.11344 15.1526 32.4945 5.29286 -4.8293 4.07053
lfemur 8.84057 1.87448 5.2458
ltibia -0.0165258 0 0
lfoot -30.1867 -11.5853 0.00232368
ltoes -33.9821 0 0
rfemur -33.0314 -15.6871 -6.14175
rtibia 50.8436 -0 0
rfoot -22.8554 5.17377 0.00064641
rtoes -42.1088 0 0
lowerback -1.46649 -0.375761 0.679439
upperback -0.716559 -0.506555 -5.83357
thorax 0.0260121 -0.269447 -6.44093
lowerneck -6.73903 1.21327 5.88825
upperneck 1.10525 1.02698 3.36351
head 1.49497 0.618454 0.0935924
lclavicle 2.65378e-14 4.45278e-14 0
lhumerus -58.235 -45.0535 114.904
lradius 54.9852 -0 0
lwrist 24.9616 0 0
lhand 37.1288 24.4319 -5.18018e-05
lfingers 7.12502 -0 0
lthumb 59.9776 38.2518 0.00340083
rclavicle 2.65378e-14 4.45278e-14 0
rhumerus 3.85372 -24.4316 0.0678864
rradius 27.9656 -0 0
rwrist -11.0668 0 0
rhand -31.1223 -44.4519 -0.0184515
rfingers 7.12502 -0 0
rthumb -4.40147 -74.394 -0.0165688
987
root 1.11883 15.1553 32.4868 5.27766 -4.73459 4.07801
lfemur 8.78535 1.78488 5.213
ltibia -0.00869778 0 0
lfoot -30.1536 -11.6151 0.00121621
ltoes -33.9584 0 0
rfemur -32.905 -15.6351 -6.19194
rtibia 50.7346 -0 0
rfoot -22.7797 5.05097 0.0002826
rtoes -42.1854 0 0
lowerback -1.47574 -0.367267 0.674423
upperback -0.712838 -0.494428 -5.8411
thorax 0.0364395 -0.26309 -6.44621
lowerneck -6.76556 1.19156 5.8586
upperneck 1.16379 0.995878 3.36068
head 1.51809 0.604923 0.0969858
lclavicle 2.65378e-14 4.45278e-14 0
lhumerus -58.2484 -45.1001 114.89
lradius 55.0123 -0 0
lwrist 24.9649 0 0
lhand 37.1759 24.404 -4.97132e-05
lfingers 7.12502 -0 0
lthumb 60.0168 38.1751 0.00175715
rclavicle 2.65378e-14 4.45278e-14 0
rhumerus 3.79881 -24.5882 -0.0545875
rradius 27.9626 -0 0
rwrist -11.0916 0 0
rhand -31.2725 -44.4413 -0.00978489
rfingers 7.12502 -0 0
rthumb -4.54639 -74.3765 -0.00880089
988
root 1.1238 15.1573 32.4781 5.2697 -4.63928 364.088
lfemur 8.7258 1.6976 5.17712
ltibia 1.90833e-14 0 0
lfoot -30.1159 -11.6552 0
ltoes -33.9256 0 0
rfemur -32.7814 -15.5868 -6.24436
rtibia 50.6256 0 0
rfoot -22.6997 4.93313 0
rtoes -42.2585 0 0
lowerback -1.48754 -0.359459 0.669615
upperback -0.712469 -0.483304 -5.85243
thorax 0.0446671 -0.257355 -6.4557
lowerneck -6.78983 1.16834 5.82499
upperneck 1.21788 0.963487 3.35806
head 1.53935 0.590558 0.101043
lclavicle -1.22253e-14 0 0
lhumerus -58.2643 -45.1387 114.869
lradius 55.0398 0 0
lwrist 24.9687 0 0
lhand 37.2319 24.379 0
lfingers 7.12502 0 0
lthumb 60.0636 38.0924 0
rclavicle -1.22253e-14 0 0
rhumerus 3.74548 -24.7764 -0.17803
rradius 27.9644 0 0
rwrist -11.1351 0 0
rhand -31.4451 -44.4536 0
rfingers 7.12502 0 0
rthumb -4.71295 -794.381 0
